<svg xmlns="http://www.w3.org/2000/svg" viewBox="0 0 1800 1100" preserveAspectRatio="xMidYMid slice">
  <defs>
    <linearGradient id="night" x1="0" y1="0" x2="1" y2="1">
      <stop offset="0" stop-color="#061312"/>
      <stop offset=".48" stop-color="#0a1c1e"/>
      <stop offset="1" stop-color="#0e2528"/>
    </linearGradient>
    <radialGradient id="moon" cx=".8" cy=".13" r=".38">
      <stop offset="0" stop-color="#bdeee6" stop-opacity=".34"/>
      <stop offset=".56" stop-color="#4da99d" stop-opacity=".14"/>
      <stop offset="1" stop-color="#000" stop-opacity="0"/>
    </radialGradient>
    <radialGradient id="ember" cx=".16" cy=".92" r=".36">
      <stop offset="0" stop-color="#c7ac68" stop-opacity=".2"/>
      <stop offset="1" stop-color="#000" stop-opacity="0"/>
    </radialGradient>
    <filter id="blur">
      <feGaussianBlur stdDeviation="14"/>
    </filter>
    <filter id="grain">
      <feTurbulence type="fractalNoise" baseFrequency=".72" numOctaves="3" seed="29"/>
      <feColorMatrix type="matrix" values=".08 0 0 0 .14 0 .08 0 0 .19 0 0 .08 0 .19 0 0 0 .22 0"/>
    </filter>
  </defs>
  <rect width="1800" height="1100" fill="url(#night)"/>
  <rect width="1800" height="1100" fill="url(#moon)"/>
  <rect width="1800" height="1100" fill="url(#ember)"/>
  <rect width="1800" height="1100" filter="url(#grain)" opacity=".44"/>

  <g opacity=".14" stroke="#83e1d5" stroke-width="1">
    <path d="M0 120h1800M0 240h1800M0 360h1800M0 480h1800M0 600h1800M0 720h1800M0 840h1800"/>
    <path d="M160 0v1100M320 0v1100M480 0v1100M640 0v1100M800 0v1100M960 0v1100M1120 0v1100M1280 0v1100M1440 0v1100M1600 0v1100"/>
  </g>

  <g fill="none" stroke="#c0a66a" stroke-width="2" opacity=".46">
    <path d="M120 80h172m-172 0c44 0 34-34 82-34h42"/>
    <path d="M1494 88h180m-180 0c42 0 42-30 92-30h34"/>
    <path d="M76 970h196m-196 0c48 0 38 34 92 34h42"/>
    <path d="M1494 988h202m-202 0c46 0 38 34 92 34h42"/>
  </g>

  <g opacity=".34" fill="none" stroke="#8ee8dc" stroke-width="13" stroke-linecap="round" filter="url(#blur)">
    <path d="M-70 210c138-78 222 24 346-32 116-52 144-116 286-62"/>
    <path d="M1250 188c88-66 182-48 250-12 80 42 154 2 226-40"/>
    <path d="M-90 856c164-86 268 28 410-26 128-48 170-128 324-58"/>
  </g>

  <g opacity=".88">
    <path fill="#0d2c2f" d="M-40 970 126 744l92 112 102-166 118 198 98-128 94 178 126-242 166 274Z"/>
    <path fill="#12383b" opacity=".9" d="M410 996 586 718l86 128 98-190 126 230 86-108 144 218Z"/>
    <path fill="#16474a" opacity=".64" d="M912 998 1074 730l94 136 116-182 118 220 108-150 190 244Z"/>
    <path fill="#1a5555" opacity=".44" d="M1328 1002 1478 758l78 114 112-172 100 178 84-120 116 244Z"/>
  </g>

  <g opacity=".58" fill="#2b6d68">
    <path d="M704 794h86v96h-86z"/>
    <path d="M680 792h134l-67-54z"/>
    <path d="M728 742h36v-34h-36z"/>
    <path d="M1100 806h92v100h-92z"/>
    <path d="M1072 806h148l-74-58z"/>
    <path d="M1128 748h38v-36h-38z"/>
  </g>

  <g opacity=".3" fill="#c8fff7">
    <circle cx="282" cy="172" r="2.5"/>
    <circle cx="522" cy="116" r="1.8"/>
    <circle cx="1374" cy="204" r="2.7"/>
    <circle cx="1526" cy="342" r="1.8"/>
    <circle cx="132" cy="590" r="1.7"/>
    <circle cx="1014" cy="126" r="2"/>
  </g>
</svg>
