<svg xmlns="http://www.w3.org/2000/svg" viewBox="0 0 92 360">
  <defs>
    <linearGradient id="jade" x1="0" y1="0" x2="1" y2="1">
      <stop offset="0" stop-color="#f7fbf5" stop-opacity=".92"/>
      <stop offset=".52" stop-color="#d7eee8" stop-opacity=".9"/>
      <stop offset="1" stop-color="#f8f4df" stop-opacity=".78"/>
    </linearGradient>
    <filter id="shadow" x="-40%" y="-20%" width="180%" height="150%">
      <feDropShadow dx="0" dy="12" stdDeviation="10" flood-color="#47756f" flood-opacity=".18"/>
    </filter>
  </defs>
  <path d="M46 0v34" stroke="#c6b37a" stroke-width="2" stroke-linecap="round"/>
  <circle cx="46" cy="42" r="8" fill="#d9c992" stroke="#b9a66e"/>
  <path d="M46 50v24" stroke="#c6b37a" stroke-width="2" stroke-linecap="round"/>
  <g filter="url(#shadow)">
    <path d="M22 72h48c8 0 14 6 14 14v130c0 8-6 14-14 14H22c-8 0-14-6-14-14V86c0-8 6-14 14-14Z" fill="url(#jade)" stroke="#d0c18b" stroke-width="2"/>
    <path d="M22 86h48v130H22z" fill="none" stroke="#f8ffff" stroke-opacity=".65"/>
    <path d="M18 102c18-18 38 8 56-10" fill="none" stroke="#8fc5bb" stroke-opacity=".22" stroke-width="7" stroke-linecap="round"/>
    <path d="M16 190c22-18 38 8 60-12" fill="none" stroke="#8fc5bb" stroke-opacity=".2" stroke-width="7" stroke-linecap="round"/>
    <text x="46" y="124" text-anchor="middle" writing-mode="tb" glyph-orientation-vertical="0" font-family="Songti SC, STSong, serif" font-size="20" fill="#4b7e77" letter-spacing="6">未读</text>
  </g>
  <path d="M46 230v42" stroke="#c6b37a" stroke-width="2" stroke-linecap="round"/>
  <circle cx="46" cy="282" r="6" fill="#d9c992" stroke="#b9a66e"/>
  <path d="M46 288c-6 22-18 38-30 58M46 288c0 24 0 44 0 68M46 288c6 22 18 38 30 58" stroke="#d7c692" stroke-width="2" stroke-linecap="round"/>
</svg>
