<svg xmlns="http://www.w3.org/2000/svg" width="2048" height="1152" viewBox="0 0 2048 1152">
  <defs>
    <filter id="shadow" x="-20%" y="-20%" width="140%" height="140%">
      <feDropShadow dx="0" dy="18" stdDeviation="22" flood-color="#000" flood-opacity=".18"/>
    </filter>
    <filter id="softShadow" x="-20%" y="-20%" width="140%" height="140%">
      <feDropShadow dx="0" dy="10" stdDeviation="14" flood-color="#000" flood-opacity=".12"/>
    </filter>
    <pattern id="paper" width="80" height="80" patternUnits="userSpaceOnUse">
      <rect width="80" height="80" fill="#f4efe5"/>
      <path d="M0 18h80M0 55h80M20 0v80M58 0v80" stroke="#8e705133" stroke-width="1"/>
      <circle cx="24" cy="21" r="1.2" fill="#8e705125"/>
      <circle cx="63" cy="47" r=".9" fill="#8e705120"/>
    </pattern>
    <pattern id="grid" width="36" height="36" patternUnits="userSpaceOnUse">
      <path d="M36 0H0v36" fill="none" stroke="#66708525" stroke-width="1"/>
    </pattern>
    <pattern id="darkGrid" width="42" height="42" patternUnits="userSpaceOnUse">
      <path d="M42 0H0v42" fill="none" stroke="#cbd5e120" stroke-width="1"/>
    </pattern>
    <linearGradient id="boardBg" x1="0" y1="0" x2="1" y2="1">
      <stop offset="0" stop-color="#f7f2e8"/>
      <stop offset=".5" stop-color="#e8edf0"/>
      <stop offset="1" stop-color="#171717"/>
    </linearGradient>
    <linearGradient id="paperLight" x1="0" y1="0" x2="1" y2="1">
      <stop offset="0" stop-color="#fbf7ed"/>
      <stop offset="1" stop-color="#e9ddc8"/>
    </linearGradient>
    <linearGradient id="paperDark" x1="0" y1="0" x2="1" y2="1">
      <stop offset="0" stop-color="#2a211b"/>
      <stop offset="1" stop-color="#120f0d"/>
    </linearGradient>
    <linearGradient id="constLight" x1="0" y1="0" x2="1" y2="1">
      <stop offset="0" stop-color="#f7fbfb"/>
      <stop offset="1" stop-color="#d9eceb"/>
    </linearGradient>
    <linearGradient id="constDark" x1="0" y1="0" x2="1" y2="1">
      <stop offset="0" stop-color="#172326"/>
      <stop offset="1" stop-color="#071112"/>
    </linearGradient>
    <linearGradient id="editLight" x1="0" y1="0" x2="1" y2="1">
      <stop offset="0" stop-color="#f5f4ef"/>
      <stop offset="1" stop-color="#e1e4e2"/>
    </linearGradient>
    <linearGradient id="editDark" x1="0" y1="0" x2="1" y2="1">
      <stop offset="0" stop-color="#202124"/>
      <stop offset="1" stop-color="#0c0d10"/>
    </linearGradient>
    <style>
      .title{font-family:"Iowan Old Style","Songti SC",serif;font-size:44px;font-weight:700;fill:#211914}
      .sub{font-family:-apple-system,BlinkMacSystemFont,"PingFang SC",sans-serif;font-size:20px;fill:#5f5b55}
      .label{font-family:-apple-system,BlinkMacSystemFont,"PingFang SC",sans-serif;font-size:18px;font-weight:700;letter-spacing:.06em}
      .ui{font-family:-apple-system,BlinkMacSystemFont,"PingFang SC",sans-serif}
      .display{font-family:"Iowan Old Style","Songti SC",serif}
      .tiny{font-size:13px}
      .small{font-size:16px}
      .mid{font-size:22px}
      .glassLight{fill:#ffffffb8;stroke:#ffffffcc;stroke-width:1.4}
      .glassDark{fill:#222826b8;stroke:#ffffff22;stroke-width:1.4}
      .lineIcon{fill:none;stroke-linecap:round;stroke-linejoin:round;stroke-width:2}
    </style>
  </defs>

  <rect width="2048" height="1152" fill="url(#boardBg)"/>
  <rect width="2048" height="1152" fill="#ffffffb8"/>

  <text x="72" y="72" class="title">乾坤戒视觉点缀方向总览</text>
  <text x="72" y="108" class="sub">三种风格 × 浅色 / 深色主题，用于确认背景图、图标和整体氛围</text>
  <text x="520" y="154" class="label" fill="#6f5a3f">浅色主题</text>
  <text x="1450" y="154" class="label" fill="#3f4648">深色主题</text>

  <!-- 面板模板：第 1 行 -->
  <g transform="translate(70 180)">
    <text x="0" y="-18" class="label" fill="#7c4a29">A 温润纸本 · 乾坤藏书</text>
    <g filter="url(#shadow)">
      <rect width="920" height="260" rx="24" fill="url(#paperLight)"/>
      <rect width="920" height="260" rx="24" fill="url(#paper)" opacity=".45"/>
      <path d="M610 42c78-46 164-36 241 8v210H610z" fill="#d5d4c355" opacity=".55"/>
      <path d="M610 98c80-30 147-17 235 42M625 142c82-24 144-12 218 31" fill="none" stroke="#45644a45" stroke-width="5" stroke-linecap="round"/>
      <rect x="24" y="22" width="872" height="42" rx="14" class="glassLight"/>
      <circle cx="48" cy="43" r="13" fill="#3f6b4a"/>
      <path d="M42 43h12M48 37v12" stroke="#f7f1df" stroke-width="2"/>
      <text x="72" y="49" class="ui small" fill="#33251b" font-weight="600">乾坤戒</text>
      <g transform="translate(350 34)" class="ui tiny">
        <rect width="84" height="22" rx="8" fill="#8d3d22" opacity=".16"/><text x="16" y="16" fill="#8d3d22">收件箱</text>
        <text x="112" y="16" fill="#765f48">收藏</text><text x="190" y="16" fill="#765f48">归档</text>
      </g>
      <g transform="translate(800 33)" stroke="#674a31"><circle cx="9" cy="9" r="7" fill="none" stroke-width="2"/><path d="M15 15l9 9" stroke-width="2"/></g>
      <g transform="translate(32 84)">
        <rect width="258" height="146" rx="18" class="glassLight"/>
        <text x="20" y="32" class="ui tiny" fill="#8d3d22">AI · 12 分钟</text>
        <text x="20" y="63" class="display mid" fill="#2d2118">一篇值得稍后细读的文章</text>
        <rect x="20" y="86" width="190" height="9" rx="4" fill="#9c8b7330"/><rect x="20" y="107" width="220" height="9" rx="4" fill="#9c8b7328"/>
        <rect x="20" y="126" width="52" height="18" rx="9" fill="#3f6b4a22"/><rect x="80" y="126" width="58" height="18" rx="9" fill="#8d3d2222"/>
      </g>
      <g transform="translate(316 84)">
        <rect width="258" height="146" rx="18" class="glassLight"/>
        <text x="20" y="32" class="ui tiny" fill="#3f6b4a">设计 · 8 分钟</text>
        <text x="20" y="63" class="display mid" fill="#2d2118">用摘要快速筛选信息</text>
        <rect x="20" y="86" width="210" height="9" rx="4" fill="#9c8b7330"/><rect x="20" y="107" width="176" height="9" rx="4" fill="#9c8b7328"/>
        <rect x="20" y="126" width="54" height="18" rx="9" fill="#3f6b4a22"/><rect x="82" y="126" width="66" height="18" rx="9" fill="#8d3d2222"/>
      </g>
      <g transform="translate(606 84)">
        <rect width="278" height="146" rx="18" fill="#fff8ecc8" stroke="#fff"/>
        <circle cx="31" cy="30" r="10" fill="#8d3d22"/><text x="50" y="36" class="ui small" fill="#33251b" font-weight="600">智能摘要</text>
        <rect x="24" y="58" width="214" height="9" rx="4" fill="#856d512e"/><rect x="24" y="80" width="230" height="9" rx="4" fill="#856d5128"/><rect x="24" y="102" width="170" height="9" rx="4" fill="#856d5120"/>
      </g>
    </g>
  </g>
  <g transform="translate(1058 180)">
    <g filter="url(#shadow)">
      <rect width="920" height="260" rx="24" fill="url(#paperDark)"/>
      <path d="M44 218C170 115 258 126 370 66M510 215c116-96 210-86 330-155" fill="none" stroke="#8b6f3d33" stroke-width="3"/>
      <rect x="24" y="22" width="872" height="42" rx="14" class="glassDark"/>
      <circle cx="48" cy="43" r="13" fill="#9f7a3d"/><path d="M42 43h12M48 37v12" stroke="#201810" stroke-width="2"/>
      <text x="72" y="49" class="ui small" fill="#efe0c5" font-weight="600">乾坤戒</text>
      <g transform="translate(350 34)" class="ui tiny">
        <rect width="84" height="22" rx="8" fill="#9f7a3d" opacity=".18"/><text x="16" y="16" fill="#d6b46f">收件箱</text>
        <text x="112" y="16" fill="#a79b8b">收藏</text><text x="190" y="16" fill="#a79b8b">归档</text>
      </g>
      <g transform="translate(32 84)">
        <rect width="258" height="146" rx="18" class="glassDark"/><text x="20" y="32" class="ui tiny" fill="#d6b46f">AI · 12 分钟</text>
        <text x="20" y="63" class="display mid" fill="#f2e5cd">藏书阁里的信息筛选</text>
        <rect x="20" y="86" width="190" height="9" rx="4" fill="#ffffff24"/><rect x="20" y="107" width="220" height="9" rx="4" fill="#ffffff18"/>
        <rect x="20" y="126" width="52" height="18" rx="9" fill="#d6b46f24"/><rect x="80" y="126" width="58" height="18" rx="9" fill="#b64a3328"/>
      </g>
      <g transform="translate(316 84)">
        <rect width="258" height="146" rx="18" class="glassDark"/><text x="20" y="32" class="ui tiny" fill="#ac8462">设计 · 8 分钟</text>
        <text x="20" y="63" class="display mid" fill="#f2e5cd">归档后的温柔秩序</text>
        <rect x="20" y="86" width="210" height="9" rx="4" fill="#ffffff24"/><rect x="20" y="107" width="176" height="9" rx="4" fill="#ffffff18"/>
      </g>
      <g transform="translate(606 84)">
        <rect width="278" height="146" rx="18" fill="#191410cc" stroke="#ffffff1e"/>
        <circle cx="31" cy="30" r="10" fill="#d6b46f"/><text x="50" y="36" class="ui small" fill="#f2e5cd" font-weight="600">智能摘要</text>
        <rect x="24" y="58" width="214" height="9" rx="4" fill="#ffffff24"/><rect x="24" y="80" width="230" height="9" rx="4" fill="#ffffff1c"/><rect x="24" y="102" width="170" height="9" rx="4" fill="#ffffff14"/>
      </g>
    </g>
  </g>

  <!-- 第 2 行 -->
  <g transform="translate(70 506)">
    <text x="0" y="-18" class="label" fill="#176c73">B AI 星图 · 知识雷达</text>
    <g filter="url(#shadow)">
      <rect width="920" height="260" rx="24" fill="url(#constLight)"/>
      <rect width="920" height="260" rx="24" fill="url(#grid)" opacity=".8"/>
      <g stroke="#1aa6a850" stroke-width="2" fill="#1aa6a8">
        <path d="M650 74l90 34 82-48M740 108l40 82M650 74l-42 112" fill="none"/>
        <circle cx="650" cy="74" r="5"/><circle cx="740" cy="108" r="6"/><circle cx="822" cy="60" r="4"/><circle cx="780" cy="190" r="5"/><circle cx="608" cy="186" r="4"/>
      </g>
      <rect x="24" y="22" width="872" height="42" rx="14" fill="#ffffffc4" stroke="#ffffff"/>
      <circle cx="48" cy="43" r="13" fill="#1a8a8f"/><path d="M42 44c8-10 17-10 25 0" stroke="#e7ffff" stroke-width="2" fill="none"/>
      <text x="72" y="49" class="ui small" fill="#102c2e" font-weight="600">乾坤戒</text>
      <g transform="translate(350 34)" class="ui tiny"><rect width="84" height="22" rx="8" fill="#1aa6a81c"/><text x="16" y="16" fill="#127a80">收件箱</text><text x="112" y="16" fill="#50666a">收藏</text><text x="190" y="16" fill="#50666a">归档</text></g>
      <g transform="translate(32 84)"><rect width="258" height="146" rx="18" fill="#ffffffb8" stroke="#ffffff"/><text x="20" y="32" class="ui tiny" fill="#127a80">AI · 语义标签</text><text x="20" y="63" class="display mid" fill="#102c2e">把文章连成知识星图</text><rect x="20" y="86" width="190" height="9" rx="4" fill="#1a8a8f26"/><rect x="20" y="107" width="220" height="9" rx="4" fill="#1a8a8f1c"/><rect x="20" y="126" width="66" height="18" rx="9" fill="#1aa6a822"/><rect x="94" y="126" width="52" height="18" rx="9" fill="#4f8cff22"/></g>
      <g transform="translate(316 84)"><rect width="258" height="146" rx="18" fill="#ffffffb8" stroke="#ffffff"/><text x="20" y="32" class="ui tiny" fill="#3f6db3">搜索 · 3 结果</text><text x="20" y="63" class="display mid" fill="#102c2e">摘要先行的阅读流</text><rect x="20" y="86" width="210" height="9" rx="4" fill="#1a8a8f26"/><rect x="20" y="107" width="176" height="9" rx="4" fill="#1a8a8f1c"/></g>
      <g transform="translate(606 84)"><rect width="278" height="146" rx="18" fill="#ffffffc8" stroke="#ffffff"/><circle cx="31" cy="30" r="10" fill="#1aa6a8"/><text x="50" y="36" class="ui small" fill="#102c2e" font-weight="600">智能摘要</text><rect x="24" y="58" width="214" height="9" rx="4" fill="#1a8a8f28"/><rect x="24" y="80" width="230" height="9" rx="4" fill="#1a8a8f20"/><rect x="24" y="102" width="170" height="9" rx="4" fill="#1a8a8f18"/></g>
    </g>
  </g>
  <g transform="translate(1058 506)">
    <g filter="url(#shadow)">
      <rect width="920" height="260" rx="24" fill="url(#constDark)"/>
      <rect width="920" height="260" rx="24" fill="url(#darkGrid)" opacity=".55"/>
      <g stroke="#3ee5db80" stroke-width="2" fill="#3ee5db">
        <path d="M92 190l94-86 118 32 74-76M690 78l90 34 82-48M780 112l40 82" fill="none"/>
        <circle cx="92" cy="190" r="5"/><circle cx="186" cy="104" r="6"/><circle cx="304" cy="136" r="5"/><circle cx="378" cy="60" r="4"/><circle cx="690" cy="78" r="5"/><circle cx="780" cy="112" r="6"/><circle cx="862" cy="64" r="4"/><circle cx="820" cy="194" r="5"/>
      </g>
      <rect x="24" y="22" width="872" height="42" rx="14" class="glassDark"/>
      <circle cx="48" cy="43" r="13" fill="#3ee5db"/><path d="M42 44c8-10 17-10 25 0" stroke="#082326" stroke-width="2" fill="none"/>
      <text x="72" y="49" class="ui small" fill="#e3fffc" font-weight="600">乾坤戒</text>
      <g transform="translate(350 34)" class="ui tiny"><rect width="84" height="22" rx="8" fill="#3ee5db22"/><text x="16" y="16" fill="#3ee5db">收件箱</text><text x="112" y="16" fill="#95aeb0">收藏</text><text x="190" y="16" fill="#95aeb0">归档</text></g>
      <g transform="translate(32 84)"><rect width="258" height="146" rx="18" class="glassDark"/><text x="20" y="32" class="ui tiny" fill="#3ee5db">AI · 语义标签</text><text x="20" y="63" class="display mid" fill="#e3fffc">夜间知识雷达</text><rect x="20" y="86" width="190" height="9" rx="4" fill="#3ee5db2a"/><rect x="20" y="107" width="220" height="9" rx="4" fill="#ffffff18"/><rect x="20" y="126" width="66" height="18" rx="9" fill="#3ee5db22"/></g>
      <g transform="translate(316 84)"><rect width="258" height="146" rx="18" class="glassDark"/><text x="20" y="32" class="ui tiny" fill="#78a8ff">搜索 · 3 结果</text><text x="20" y="63" class="display mid" fill="#e3fffc">标签节点微光</text><rect x="20" y="86" width="210" height="9" rx="4" fill="#3ee5db2a"/><rect x="20" y="107" width="176" height="9" rx="4" fill="#ffffff18"/></g>
      <g transform="translate(606 84)"><rect width="278" height="146" rx="18" class="glassDark"/><circle cx="31" cy="30" r="10" fill="#3ee5db"/><text x="50" y="36" class="ui small" fill="#e3fffc" font-weight="600">智能摘要</text><rect x="24" y="58" width="214" height="9" rx="4" fill="#3ee5db2a"/><rect x="24" y="80" width="230" height="9" rx="4" fill="#ffffff1c"/><rect x="24" y="102" width="170" height="9" rx="4" fill="#ffffff14"/></g>
    </g>
  </g>

  <!-- 第 3 行 -->
  <g transform="translate(70 832)">
    <text x="0" y="-18" class="label" fill="#5e5c52">C 编辑台 · 杂志剪藏</text>
    <g filter="url(#shadow)">
      <rect width="920" height="260" rx="24" fill="url(#editLight)"/>
      <rect width="920" height="260" rx="24" fill="url(#grid)" opacity=".7"/>
      <rect x="666" y="48" width="110" height="150" rx="12" fill="#c46a47" transform="rotate(-8 721 123)" opacity=".55"/>
      <rect x="760" y="60" width="88" height="134" rx="10" fill="#314f6b" transform="rotate(9 804 127)" opacity=".45"/>
      <rect x="24" y="22" width="872" height="42" rx="14" fill="#ffffffbd" stroke="#ffffff"/>
      <circle cx="48" cy="43" r="13" fill="#383b3b"/><path d="M41 42h14l5 8H46z" fill="#f2eee4"/>
      <text x="72" y="49" class="ui small" fill="#202124" font-weight="600">乾坤戒</text>
      <g transform="translate(350 34)" class="ui tiny"><rect width="84" height="22" rx="8" fill="#e25d3320"/><text x="16" y="16" fill="#b44b2d">收件箱</text><text x="112" y="16" fill="#5e5c52">收藏</text><text x="190" y="16" fill="#5e5c52">归档</text></g>
      <g transform="translate(32 84)"><rect width="258" height="146" rx="18" fill="#ffffffc5" stroke="#ffffff"/><rect x="18" y="18" width="50" height="20" rx="4" fill="#e25d33"/><text x="20" y="63" class="display mid" fill="#202124">剪藏后的阅读工作台</text><rect x="20" y="86" width="190" height="9" rx="4" fill="#47546726"/><rect x="20" y="107" width="220" height="9" rx="4" fill="#4754671c"/><rect x="20" y="126" width="52" height="18" rx="4" fill="#e25d3322"/><rect x="80" y="126" width="58" height="18" rx="4" fill="#2f6f7e22"/></g>
      <g transform="translate(316 84)"><rect width="258" height="146" rx="18" fill="#ffffffc5" stroke="#ffffff"/><rect x="18" y="18" width="50" height="20" rx="4" fill="#2f6f7e"/><text x="20" y="63" class="display mid" fill="#202124">按索引贴快速归档</text><rect x="20" y="86" width="210" height="9" rx="4" fill="#47546726"/><rect x="20" y="107" width="176" height="9" rx="4" fill="#4754671c"/></g>
      <g transform="translate(606 84)"><rect width="278" height="146" rx="18" fill="#ffffffd0" stroke="#ffffff"/><circle cx="31" cy="30" r="10" fill="#e25d33"/><text x="50" y="36" class="ui small" fill="#202124" font-weight="600">智能摘要</text><rect x="24" y="58" width="214" height="9" rx="4" fill="#47546728"/><rect x="24" y="80" width="230" height="9" rx="4" fill="#47546720"/><rect x="24" y="102" width="170" height="9" rx="4" fill="#47546718"/></g>
    </g>
  </g>
  <g transform="translate(1058 832)">
    <g filter="url(#shadow)">
      <rect width="920" height="260" rx="24" fill="url(#editDark)"/>
      <rect width="920" height="260" rx="24" fill="url(#darkGrid)" opacity=".42"/>
      <rect x="650" y="56" width="118" height="148" rx="12" fill="#a8432a" transform="rotate(-7 709 130)" opacity=".58"/>
      <rect x="760" y="58" width="96" height="138" rx="10" fill="#43667c" transform="rotate(8 808 127)" opacity=".5"/>
      <rect x="24" y="22" width="872" height="42" rx="14" class="glassDark"/>
      <circle cx="48" cy="43" r="13" fill="#e7d0a8"/><path d="M41 42h14l5 8H46z" fill="#1a1b1d"/>
      <text x="72" y="49" class="ui small" fill="#f4efe6" font-weight="600">乾坤戒</text>
      <g transform="translate(350 34)" class="ui tiny"><rect width="84" height="22" rx="8" fill="#e25d3322"/><text x="16" y="16" fill="#ff8b66">收件箱</text><text x="112" y="16" fill="#a8a59c">收藏</text><text x="190" y="16" fill="#a8a59c">归档</text></g>
      <g transform="translate(32 84)"><rect width="258" height="146" rx="18" class="glassDark"/><rect x="18" y="18" width="50" height="20" rx="4" fill="#ff8b66"/><text x="20" y="63" class="display mid" fill="#f4efe6">夜间编辑台</text><rect x="20" y="86" width="190" height="9" rx="4" fill="#ffffff26"/><rect x="20" y="107" width="220" height="9" rx="4" fill="#ffffff1a"/><rect x="20" y="126" width="52" height="18" rx="4" fill="#ff8b6624"/></g>
      <g transform="translate(316 84)"><rect width="258" height="146" rx="18" class="glassDark"/><rect x="18" y="18" width="50" height="20" rx="4" fill="#78c6ce"/><text x="20" y="63" class="display mid" fill="#f4efe6">暗色杂志剪藏</text><rect x="20" y="86" width="210" height="9" rx="4" fill="#ffffff26"/><rect x="20" y="107" width="176" height="9" rx="4" fill="#ffffff1a"/></g>
      <g transform="translate(606 84)"><rect width="278" height="146" rx="18" class="glassDark"/><circle cx="31" cy="30" r="10" fill="#ff8b66"/><text x="50" y="36" class="ui small" fill="#f4efe6" font-weight="600">智能摘要</text><rect x="24" y="58" width="214" height="9" rx="4" fill="#ffffff26"/><rect x="24" y="80" width="230" height="9" rx="4" fill="#ffffff1c"/><rect x="24" y="102" width="170" height="9" rx="4" fill="#ffffff14"/></g>
    </g>
  </g>
</svg>
